<?xml version="1.0" standalone="no"?><!DOCTYPE svg PUBLIC "-//W3C//DTD SVG 1.1//EN" "http://www.w3.org/Graphics/SVG/1.1/DTD/svg11.dtd"><svg t="1746579770227" class="icon" viewBox="0 0 1024 1024" version="1.1" xmlns="http://www.w3.org/2000/svg" p-id="1899" xmlns:xlink="http://www.w3.org/1999/xlink" width="48" height="48"><path d="M592 145h377c22.092 0 40 17.908 40 40 0 110.456-89.542 200-200 200H592z" fill="#FFCD6E" p-id="1900"></path><path d="M592 385h217c41.18 0 79.448-12.452 111.258-33.786 1.018-10.654 1.606-21.378 1.72-32.152 0.646-61.338-13.302-120.654-40.218-174.062H592z" fill="#F8B55E" p-id="1901"></path><path d="M767.01 513.418c46.01-52.134 74.186-120.382 74.974-195.198 1.74-165.396-132.424-302.048-297.826-303.212C377.482 13.834 242 148.596 242 315c0 64.87 20.592 124.926 55.592 174h-26.578a188.554 188.554 0 0 1-152.488-77.65A78.542 78.542 0 0 0 55 379c-22.092 0-40 17.908-40 40v330c0 143.594 116.406 260 260 260H582c143.594 0 260-116.406 260-260 0-70.432-28.012-134.316-73.496-181.136-14.612-15.04-15.37-38.724-1.494-54.446z" fill="#FFDF8E" p-id="1902"></path><path d="M620.92 229.648a58.774 46.806 0 1 0 117.548 0 58.774 46.806 0 1 0-117.548 0Z" fill="#FDA0C1" p-id="1903"></path><path d="M689.518 188.77a15 15 0 0 1-15-15v-24c0-8.286 6.716-15 15-15s15 6.714 15 15v24a15 15 0 0 1-15 15z" p-id="1904"></path><path d="M769.604 929C643.902 929 542 827.098 542 701.396c0-44.932-30.25-84.522-73.81-95.544-69.854-17.674-129.946-59.852-170.598-116.852h-26.578a188.554 188.554 0 0 1-152.488-77.65A78.542 78.542 0 0 0 55 379c-22.092 0-40 17.908-40 40v330c0 143.594 116.406 260 260 260H582c73.732 0 140.288-30.696 187.604-80z" fill="#FFCD6E" p-id="1905"></path><path d="M512.288 569c-65.682 0.002-123.146 35.182-154.578 87.726-33.888 56.652-94.12 92.274-160.134 92.274h-2.378c-13.482 0-22.99 13.034-19.11 25.944 11.138 37.058 45.518 64.056 86.204 64.056 0 49.706 40.294 90 90 90h157.722c99.168 0 181.412-79.246 182.272-178.41 0.864-100.052-80.144-181.592-179.998-181.59z" fill="#FFF2B4" p-id="1906"></path><path d="M969 130h-172.37C738.538 50.026 645.578 0.722 544.264 0.008 543.5 0.002 542.746 0 541.982 0c-83.734 0-162.476 32.436-221.932 91.476C260.046 151.058 227 230.442 227 315c0 56.478 14.792 110.904 43.006 158.996-54.97-0.32-106.998-26.986-139.348-71.468C113.112 378.402 84.83 364 55 364 24.672 364 0 388.674 0 419v330C0 900.634 123.364 1024 275 1024H582c151.636 0 275-123.366 275-275 0-71.948-27.608-139.988-77.738-191.586-9.13-9.4-9.572-24.366-1.008-34.07a314.726 314.726 0 0 0 67.946-126.594c48.094-8.406 92.092-33.084 124.522-70.074A214.81 214.81 0 0 0 1024 185c0-30.326-24.672-55-55-55z m-115.956 234.694a314.682 314.682 0 0 0 3.938-46.314 314.666 314.666 0 0 0-5.408-61.512c-1.538-8.14-9.378-13.504-17.522-11.958a15 15 0 0 0-11.958 17.522 284.812 284.812 0 0 1-66.332 241.062c-18.872 21.386-18 54.254 1.984 74.826 44.66 45.966 69.254 106.584 69.254 170.682 0 135.094-109.906 245-245 245H275C139.906 994 30 884.094 30 749v-330c0-13.786 11.214-25 25-25 20.262 0 39.476 9.784 51.396 26.172C144.57 472.662 206.11 504 271.014 504h26.578a15 15 0 0 0 12.21-23.708C275.26 431.854 257 374.698 257 315c0-76.504 29.898-148.328 84.188-202.236C394.986 59.344 466.22 30 541.988 30c0.686 0 1.378 0.002 2.066 0.008 114.052 0.802 216.462 69.672 260.9 175.452a15 15 0 0 0 27.658-11.62 319.74 319.74 0 0 0-16.66-33.838H969c13.786 0 25 11.214 25 25 0 85.514-59.434 159.722-140.956 179.692z" p-id="1907"></path><path d="M512.288 554c-68.226 0.002-132.39 36.414-167.452 95.026C313.008 702.234 257.958 734 197.576 734h-2.378c-11.16 0-21.376 5.132-28.03 14.08-6.708 9.02-8.692 20.384-5.446 31.184 11.86 39.46 46.344 68.252 86.504 73.774C255.108 904.32 299.154 944 352.292 944h10.01c8.284 0 15-6.714 15-15s-6.716-15-15-15h-10.01c-41.356 0-75-33.644-75-75a15 15 0 0 0-15-15c-32.852 0-62.394-21.948-71.838-53.374a5.13 5.13 0 0 1 0.79-4.644A4.762 4.762 0 0 1 195.2 764h2.378c69.974 0 136.266-38.154 173.006-99.572 29.676-49.608 83.974-80.426 141.708-80.428 44.302 0 85.906 17.356 117.15 48.87 31.238 31.51 48.23 73.27 47.848 117.59-0.788 90.176-75.826 163.54-167.278 163.54h-87.71c-8.284 0-15 6.714-15 15s6.716 15 15 15h87.71c107.852 0 196.348-86.706 197.272-193.282 0.454-52.38-19.626-101.736-56.542-138.97-36.92-37.24-86.09-57.75-138.454-57.748z" p-id="1908"></path></svg>